ISO-10303-21;
HEADER;
/* Generated by software containing ST-Developer
 * from STEP Tools, Inc. (www.steptools.com) 
 */

FILE_DESCRIPTION(
/* description */ (''),
/* implementation_level */ '2;1');

FILE_NAME(
/* name */ 'right frame piece.step',
/* time_stamp */ '2026-09-12T15:54:34-04:00',
/* author */ (''),
/* organization */ (''),
/* preprocessor_version */ 'ST-DEVELOPER v20.2',
/* originating_system */ 'Autodesk Translation Framework v15.15.0.0',
/* authorisation */ '');

FILE_SCHEMA (('AUTOMOTIVE_DESIGN { 1 0 10303 214 3 1 1 }'));
ENDSEC;

DATA;
#10=MECHANICAL_DESIGN_GEOMETRIC_PRESENTATION_REPRESENTATION('',(#13),#592);
#11=SHAPE_REPRESENTATION_RELATIONSHIP('SRR','None',#599,#12);
#12=ADVANCED_BREP_SHAPE_REPRESENTATION('',(#14),#591);
#13=STYLED_ITEM('',(#609),#14);
#14=MANIFOLD_SOLID_BREP('Body1',#348);
#15=CYLINDRICAL_SURFACE('',#376,3.09999999999999);
#16=CYLINDRICAL_SURFACE('',#378,3.09999999999999);
#17=CYLINDRICAL_SURFACE('',#380,3.09999999999999);
#18=CYLINDRICAL_SURFACE('',#382,3.09999999999999);
#19=CYLINDRICAL_SURFACE('',#384,7.5);
#20=CYLINDRICAL_SURFACE('',#386,2.60000000000001);
#21=CYLINDRICAL_SURFACE('',#388,2.60000000000001);
#22=CYLINDRICAL_SURFACE('',#390,10.);
#23=CYLINDRICAL_SURFACE('',#395,10.);
#24=FACE_BOUND('',#77,.T.);
#25=FACE_BOUND('',#78,.T.);
#26=FACE_BOUND('',#79,.T.);
#27=FACE_BOUND('',#80,.T.);
#28=FACE_BOUND('',#81,.T.);
#29=FACE_BOUND('',#82,.T.);
#30=FACE_BOUND('',#83,.T.);
#31=FACE_BOUND('',#94,.T.);
#32=FACE_BOUND('',#95,.T.);
#33=FACE_BOUND('',#96,.T.);
#34=FACE_BOUND('',#97,.T.);
#35=FACE_BOUND('',#98,.T.);
#36=FACE_BOUND('',#99,.T.);
#37=FACE_BOUND('',#100,.T.);
#38=CIRCLE('',#366,10.);
#39=CIRCLE('',#367,10.);
#40=CIRCLE('',#368,3.09999999999999);
#41=CIRCLE('',#369,3.09999999999999);
#42=CIRCLE('',#370,3.09999999999999);
#43=CIRCLE('',#371,3.09999999999999);
#44=CIRCLE('',#372,7.5);
#45=CIRCLE('',#373,2.60000000000001);
#46=CIRCLE('',#374,2.60000000000001);
#47=CIRCLE('',#377,3.09999999999999);
#48=CIRCLE('',#379,3.09999999999999);
#49=CIRCLE('',#381,3.09999999999999);
#50=CIRCLE('',#383,3.09999999999999);
#51=CIRCLE('',#385,7.5);
#52=CIRCLE('',#387,2.60000000000001);
#53=CIRCLE('',#389,2.60000000000001);
#54=CIRCLE('',#391,10.);
#55=CIRCLE('',#393,10.);
#56=FACE_OUTER_BOUND('',#73,.T.);
#57=FACE_OUTER_BOUND('',#74,.T.);
#58=FACE_OUTER_BOUND('',#75,.T.);
#59=FACE_OUTER_BOUND('',#76,.T.);
#60=FACE_OUTER_BOUND('',#84,.T.);
#61=FACE_OUTER_BOUND('',#85,.T.);
#62=FACE_OUTER_BOUND('',#86,.T.);
#63=FACE_OUTER_BOUND('',#87,.T.);
#64=FACE_OUTER_BOUND('',#88,.T.);
#65=FACE_OUTER_BOUND('',#89,.T.);
#66=FACE_OUTER_BOUND('',#90,.T.);
#67=FACE_OUTER_BOUND('',#91,.T.);
#68=FACE_OUTER_BOUND('',#92,.T.);
#69=FACE_OUTER_BOUND('',#93,.T.);
#70=FACE_OUTER_BOUND('',#101,.T.);
#71=FACE_OUTER_BOUND('',#102,.T.);
#72=FACE_OUTER_BOUND('',#103,.T.);
#73=EDGE_LOOP('',(#233,#234,#235,#236));
#74=EDGE_LOOP('',(#237,#238,#239,#240));
#75=EDGE_LOOP('',(#241,#242,#243,#244));
#76=EDGE_LOOP('',(#245,#246,#247,#248,#249,#250,#251,#252));
#77=EDGE_LOOP('',(#253));
#78=EDGE_LOOP('',(#254));
#79=EDGE_LOOP('',(#255));
#80=EDGE_LOOP('',(#256));
#81=EDGE_LOOP('',(#257));
#82=EDGE_LOOP('',(#258));
#83=EDGE_LOOP('',(#259));
#84=EDGE_LOOP('',(#260,#261,#262,#263));
#85=EDGE_LOOP('',(#264,#265,#266,#267));
#86=EDGE_LOOP('',(#268,#269,#270,#271));
#87=EDGE_LOOP('',(#272,#273,#274,#275));
#88=EDGE_LOOP('',(#276,#277,#278,#279));
#89=EDGE_LOOP('',(#280,#281,#282,#283));
#90=EDGE_LOOP('',(#284,#285,#286,#287));
#91=EDGE_LOOP('',(#288,#289,#290,#291));
#92=EDGE_LOOP('',(#292,#293,#294,#295));
#93=EDGE_LOOP('',(#296,#297,#298,#299,#300,#301,#302,#303));
#94=EDGE_LOOP('',(#304));
#95=EDGE_LOOP('',(#305));
#96=EDGE_LOOP('',(#306));
#97=EDGE_LOOP('',(#307));
#98=EDGE_LOOP('',(#308));
#99=EDGE_LOOP('',(#309));
#100=EDGE_LOOP('',(#310));
#101=EDGE_LOOP('',(#311,#312,#313,#314));
#102=EDGE_LOOP('',(#315,#316,#317,#318));
#103=EDGE_LOOP('',(#319,#320,#321,#322));
#104=LINE('',#500,#131);
#105=LINE('',#502,#132);
#106=LINE('',#504,#133);
#107=LINE('',#505,#134);
#108=LINE('',#508,#135);
#109=LINE('',#510,#136);
#110=LINE('',#511,#137);
#111=LINE('',#515,#138);
#112=LINE('',#516,#139);
#113=LINE('',#517,#140);
#114=LINE('',#520,#141);
#115=LINE('',#524,#142);
#116=LINE('',#527,#143);
#117=LINE('',#544,#144);
#118=LINE('',#545,#145);
#119=LINE('',#548,#146);
#120=LINE('',#552,#147);
#121=LINE('',#556,#148);
#122=LINE('',#560,#149);
#123=LINE('',#564,#150);
#124=LINE('',#569,#151);
#125=LINE('',#573,#152);
#126=LINE('',#577,#153);
#127=LINE('',#580,#154);
#128=LINE('',#583,#155);
#129=LINE('',#585,#156);
#130=LINE('',#587,#157);
#131=VECTOR('',#401,10.);
#132=VECTOR('',#402,10.);
#133=VECTOR('',#403,10.);
#134=VECTOR('',#404,10.);
#135=VECTOR('',#407,10.);
#136=VECTOR('',#408,10.);
#137=VECTOR('',#409,10.);
#138=VECTOR('',#412,10.);
#139=VECTOR('',#413,10.);
#140=VECTOR('',#414,10.);
#141=VECTOR('',#417,10.);
#142=VECTOR('',#420,10.);
#143=VECTOR('',#423,10.);
#144=VECTOR('',#440,10.);
#145=VECTOR('',#441,10.);
#146=VECTOR('',#444,3.09999999999999);
#147=VECTOR('',#449,3.09999999999999);
#148=VECTOR('',#454,3.09999999999999);
#149=VECTOR('',#459,3.09999999999999);
#150=VECTOR('',#464,7.5);
#151=VECTOR('',#471,2.60000000000001);
#152=VECTOR('',#476,2.60000000000001);
#153=VECTOR('',#481,10.);
#154=VECTOR('',#484,10.);
#155=VECTOR('',#487,10.);
#156=VECTOR('',#490,10.);
#157=VECTOR('',#493,10.);
#158=VERTEX_POINT('',#498);
#159=VERTEX_POINT('',#499);
#160=VERTEX_POINT('',#501);
#161=VERTEX_POINT('',#503);
#162=VERTEX_POINT('',#507);
#163=VERTEX_POINT('',#509);
#164=VERTEX_POINT('',#513);
#165=VERTEX_POINT('',#514);
#166=VERTEX_POINT('',#519);
#167=VERTEX_POINT('',#521);
#168=VERTEX_POINT('',#523);
#169=VERTEX_POINT('',#525);
#170=VERTEX_POINT('',#528);
#171=VERTEX_POINT('',#530);
#172=VERTEX_POINT('',#532);
#173=VERTEX_POINT('',#534);
#174=VERTEX_POINT('',#536);
#175=VERTEX_POINT('',#538);
#176=VERTEX_POINT('',#540);
#177=VERTEX_POINT('',#543);
#178=VERTEX_POINT('',#547);
#179=VERTEX_POINT('',#551);
#180=VERTEX_POINT('',#555);
#181=VERTEX_POINT('',#559);
#182=VERTEX_POINT('',#563);
#183=VERTEX_POINT('',#567);
#184=VERTEX_POINT('',#571);
#185=VERTEX_POINT('',#575);
#186=VERTEX_POINT('',#579);
#187=VERTEX_POINT('',#581);
#188=EDGE_CURVE('',#158,#159,#104,.T.);
#189=EDGE_CURVE('',#158,#160,#105,.T.);
#190=EDGE_CURVE('',#161,#160,#106,.T.);
#191=EDGE_CURVE('',#159,#161,#107,.T.);
#192=EDGE_CURVE('',#162,#158,#108,.T.);
#193=EDGE_CURVE('',#163,#162,#109,.T.);
#194=EDGE_CURVE('',#160,#163,#110,.T.);
#195=EDGE_CURVE('',#164,#165,#111,.T.);
#196=EDGE_CURVE('',#159,#164,#112,.T.);
#197=EDGE_CURVE('',#165,#161,#113,.T.);
#198=EDGE_CURVE('',#164,#166,#114,.T.);
#199=EDGE_CURVE('',#167,#166,#38,.T.);
#200=EDGE_CURVE('',#167,#168,#115,.T.);
#201=EDGE_CURVE('',#169,#168,#39,.T.);
#202=EDGE_CURVE('',#169,#162,#116,.T.);
#203=EDGE_CURVE('',#170,#170,#40,.T.);
#204=EDGE_CURVE('',#171,#171,#41,.T.);
#205=EDGE_CURVE('',#172,#172,#42,.T.);
#206=EDGE_CURVE('',#173,#173,#43,.T.);
#207=EDGE_CURVE('',#174,#174,#44,.T.);
#208=EDGE_CURVE('',#175,#175,#45,.T.);
#209=EDGE_CURVE('',#176,#176,#46,.T.);
#210=EDGE_CURVE('',#177,#165,#117,.T.);
#211=EDGE_CURVE('',#166,#177,#118,.T.);
#212=EDGE_CURVE('',#170,#178,#119,.T.);
#213=EDGE_CURVE('',#178,#178,#47,.T.);
#214=EDGE_CURVE('',#171,#179,#120,.T.);
#215=EDGE_CURVE('',#179,#179,#48,.T.);
#216=EDGE_CURVE('',#172,#180,#121,.T.);
#217=EDGE_CURVE('',#180,#180,#49,.T.);
#218=EDGE_CURVE('',#173,#181,#122,.T.);
#219=EDGE_CURVE('',#181,#181,#50,.T.);
#220=EDGE_CURVE('',#174,#182,#123,.T.);
#221=EDGE_CURVE('',#182,#182,#51,.T.);
#222=EDGE_CURVE('',#183,#183,#52,.T.);
#223=EDGE_CURVE('',#183,#175,#124,.T.);
#224=EDGE_CURVE('',#184,#184,#53,.T.);
#225=EDGE_CURVE('',#184,#176,#125,.T.);
#226=EDGE_CURVE('',#177,#185,#54,.T.);
#227=EDGE_CURVE('',#185,#167,#126,.T.);
#228=EDGE_CURVE('',#186,#163,#127,.T.);
#229=EDGE_CURVE('',#187,#186,#55,.T.);
#230=EDGE_CURVE('',#185,#187,#128,.T.);
#231=EDGE_CURVE('',#186,#169,#129,.T.);
#232=EDGE_CURVE('',#168,#187,#130,.T.);
#233=ORIENTED_EDGE('',*,*,#188,.F.);
#234=ORIENTED_EDGE('',*,*,#189,.T.);
#235=ORIENTED_EDGE('',*,*,#190,.F.);
#236=ORIENTED_EDGE('',*,*,#191,.F.);
#237=ORIENTED_EDGE('',*,*,#192,.F.);
#238=ORIENTED_EDGE('',*,*,#193,.F.);
#239=ORIENTED_EDGE('',*,*,#194,.F.);
#240=ORIENTED_EDGE('',*,*,#189,.F.);
#241=ORIENTED_EDGE('',*,*,#195,.F.);
#242=ORIENTED_EDGE('',*,*,#196,.F.);
#243=ORIENTED_EDGE('',*,*,#191,.T.);
#244=ORIENTED_EDGE('',*,*,#197,.F.);
#245=ORIENTED_EDGE('',*,*,#196,.T.);
#246=ORIENTED_EDGE('',*,*,#198,.T.);
#247=ORIENTED_EDGE('',*,*,#199,.F.);
#248=ORIENTED_EDGE('',*,*,#200,.T.);
#249=ORIENTED_EDGE('',*,*,#201,.F.);
#250=ORIENTED_EDGE('',*,*,#202,.T.);
#251=ORIENTED_EDGE('',*,*,#192,.T.);
#252=ORIENTED_EDGE('',*,*,#188,.T.);
#253=ORIENTED_EDGE('',*,*,#203,.T.);
#254=ORIENTED_EDGE('',*,*,#204,.T.);
#255=ORIENTED_EDGE('',*,*,#205,.T.);
#256=ORIENTED_EDGE('',*,*,#206,.T.);
#257=ORIENTED_EDGE('',*,*,#207,.T.);
#258=ORIENTED_EDGE('',*,*,#208,.T.);
#259=ORIENTED_EDGE('',*,*,#209,.T.);
#260=ORIENTED_EDGE('',*,*,#195,.T.);
#261=ORIENTED_EDGE('',*,*,#210,.F.);
#262=ORIENTED_EDGE('',*,*,#211,.F.);
#263=ORIENTED_EDGE('',*,*,#198,.F.);
#264=ORIENTED_EDGE('',*,*,#203,.F.);
#265=ORIENTED_EDGE('',*,*,#212,.T.);
#266=ORIENTED_EDGE('',*,*,#213,.F.);
#267=ORIENTED_EDGE('',*,*,#212,.F.);
#268=ORIENTED_EDGE('',*,*,#204,.F.);
#269=ORIENTED_EDGE('',*,*,#214,.T.);
#270=ORIENTED_EDGE('',*,*,#215,.F.);
#271=ORIENTED_EDGE('',*,*,#214,.F.);
#272=ORIENTED_EDGE('',*,*,#205,.F.);
#273=ORIENTED_EDGE('',*,*,#216,.T.);
#274=ORIENTED_EDGE('',*,*,#217,.F.);
#275=ORIENTED_EDGE('',*,*,#216,.F.);
#276=ORIENTED_EDGE('',*,*,#206,.F.);
#277=ORIENTED_EDGE('',*,*,#218,.T.);
#278=ORIENTED_EDGE('',*,*,#219,.F.);
#279=ORIENTED_EDGE('',*,*,#218,.F.);
#280=ORIENTED_EDGE('',*,*,#207,.F.);
#281=ORIENTED_EDGE('',*,*,#220,.T.);
#282=ORIENTED_EDGE('',*,*,#221,.F.);
#283=ORIENTED_EDGE('',*,*,#220,.F.);
#284=ORIENTED_EDGE('',*,*,#222,.F.);
#285=ORIENTED_EDGE('',*,*,#223,.T.);
#286=ORIENTED_EDGE('',*,*,#208,.F.);
#287=ORIENTED_EDGE('',*,*,#223,.F.);
#288=ORIENTED_EDGE('',*,*,#224,.F.);
#289=ORIENTED_EDGE('',*,*,#225,.T.);
#290=ORIENTED_EDGE('',*,*,#209,.F.);
#291=ORIENTED_EDGE('',*,*,#225,.F.);
#292=ORIENTED_EDGE('',*,*,#226,.T.);
#293=ORIENTED_EDGE('',*,*,#227,.T.);
#294=ORIENTED_EDGE('',*,*,#199,.T.);
#295=ORIENTED_EDGE('',*,*,#211,.T.);
#296=ORIENTED_EDGE('',*,*,#197,.T.);
#297=ORIENTED_EDGE('',*,*,#190,.T.);
#298=ORIENTED_EDGE('',*,*,#194,.T.);
#299=ORIENTED_EDGE('',*,*,#228,.F.);
#300=ORIENTED_EDGE('',*,*,#229,.F.);
#301=ORIENTED_EDGE('',*,*,#230,.F.);
#302=ORIENTED_EDGE('',*,*,#226,.F.);
#303=ORIENTED_EDGE('',*,*,#210,.T.);
#304=ORIENTED_EDGE('',*,*,#224,.T.);
#305=ORIENTED_EDGE('',*,*,#222,.T.);
#306=ORIENTED_EDGE('',*,*,#221,.T.);
#307=ORIENTED_EDGE('',*,*,#219,.T.);
#308=ORIENTED_EDGE('',*,*,#217,.T.);
#309=ORIENTED_EDGE('',*,*,#215,.T.);
#310=ORIENTED_EDGE('',*,*,#213,.T.);
#311=ORIENTED_EDGE('',*,*,#193,.T.);
#312=ORIENTED_EDGE('',*,*,#202,.F.);
#313=ORIENTED_EDGE('',*,*,#231,.F.);
#314=ORIENTED_EDGE('',*,*,#228,.T.);
#315=ORIENTED_EDGE('',*,*,#201,.T.);
#316=ORIENTED_EDGE('',*,*,#232,.T.);
#317=ORIENTED_EDGE('',*,*,#229,.T.);
#318=ORIENTED_EDGE('',*,*,#231,.T.);
#319=ORIENTED_EDGE('',*,*,#227,.F.);
#320=ORIENTED_EDGE('',*,*,#230,.T.);
#321=ORIENTED_EDGE('',*,*,#232,.F.);
#322=ORIENTED_EDGE('',*,*,#200,.F.);
#323=PLANE('',#362);
#324=PLANE('',#363);
#325=PLANE('',#364);
#326=PLANE('',#365);
#327=PLANE('',#375);
#328=PLANE('',#392);
#329=PLANE('',#394);
#330=PLANE('',#396);
#331=ADVANCED_FACE('',(#56),#323,.T.);
#332=ADVANCED_FACE('',(#57),#324,.T.);
#333=ADVANCED_FACE('',(#58),#325,.F.);
#334=ADVANCED_FACE('',(#59,#24,#25,#26,#27,#28,#29,#30),#326,.T.);
#335=ADVANCED_FACE('',(#60),#327,.F.);
#336=ADVANCED_FACE('',(#61),#15,.F.);
#337=ADVANCED_FACE('',(#62),#16,.F.);
#338=ADVANCED_FACE('',(#63),#17,.F.);
#339=ADVANCED_FACE('',(#64),#18,.F.);
#340=ADVANCED_FACE('',(#65),#19,.F.);
#341=ADVANCED_FACE('',(#66),#20,.F.);
#342=ADVANCED_FACE('',(#67),#21,.F.);
#343=ADVANCED_FACE('',(#68),#22,.T.);
#344=ADVANCED_FACE('',(#69,#31,#32,#33,#34,#35,#36,#37),#328,.F.);
#345=ADVANCED_FACE('',(#70),#329,.T.);
#346=ADVANCED_FACE('',(#71),#23,.T.);
#347=ADVANCED_FACE('',(#72),#330,.T.);
#348=CLOSED_SHELL('',(#331,#332,#333,#334,#335,#336,#337,#338,#339,#340,
#341,#342,#343,#344,#345,#346,#347));
#349=DERIVED_UNIT_ELEMENT(#351,1.);
#350=DERIVED_UNIT_ELEMENT(#594,-3.);
#351=(
MASS_UNIT()
NAMED_UNIT(*)
SI_UNIT(.KILO.,.GRAM.)
);
#352=DERIVED_UNIT((#349,#350));
#353=MEASURE_REPRESENTATION_ITEM('density measure',
POSITIVE_RATIO_MEASURE(7850.),#352);
#354=PROPERTY_DEFINITION_REPRESENTATION(#359,#356);
#355=PROPERTY_DEFINITION_REPRESENTATION(#360,#357);
#356=REPRESENTATION('material name',(#358),#591);
#357=REPRESENTATION('density',(#353),#591);
#358=DESCRIPTIVE_REPRESENTATION_ITEM('Steel','Steel');
#359=PROPERTY_DEFINITION('material property','material name',#601);
#360=PROPERTY_DEFINITION('material property','density of part',#601);
#361=AXIS2_PLACEMENT_3D('',#496,#397,#398);
#362=AXIS2_PLACEMENT_3D('',#497,#399,#400);
#363=AXIS2_PLACEMENT_3D('',#506,#405,#406);
#364=AXIS2_PLACEMENT_3D('',#512,#410,#411);
#365=AXIS2_PLACEMENT_3D('',#518,#415,#416);
#366=AXIS2_PLACEMENT_3D('',#522,#418,#419);
#367=AXIS2_PLACEMENT_3D('',#526,#421,#422);
#368=AXIS2_PLACEMENT_3D('',#529,#424,#425);
#369=AXIS2_PLACEMENT_3D('',#531,#426,#427);
#370=AXIS2_PLACEMENT_3D('',#533,#428,#429);
#371=AXIS2_PLACEMENT_3D('',#535,#430,#431);
#372=AXIS2_PLACEMENT_3D('',#537,#432,#433);
#373=AXIS2_PLACEMENT_3D('',#539,#434,#435);
#374=AXIS2_PLACEMENT_3D('',#541,#436,#437);
#375=AXIS2_PLACEMENT_3D('',#542,#438,#439);
#376=AXIS2_PLACEMENT_3D('',#546,#442,#443);
#377=AXIS2_PLACEMENT_3D('',#549,#445,#446);
#378=AXIS2_PLACEMENT_3D('',#550,#447,#448);
#379=AXIS2_PLACEMENT_3D('',#553,#450,#451);
#380=AXIS2_PLACEMENT_3D('',#554,#452,#453);
#381=AXIS2_PLACEMENT_3D('',#557,#455,#456);
#382=AXIS2_PLACEMENT_3D('',#558,#457,#458);
#383=AXIS2_PLACEMENT_3D('',#561,#460,#461);
#384=AXIS2_PLACEMENT_3D('',#562,#462,#463);
#385=AXIS2_PLACEMENT_3D('',#565,#465,#466);
#386=AXIS2_PLACEMENT_3D('',#566,#467,#468);
#387=AXIS2_PLACEMENT_3D('',#568,#469,#470);
#388=AXIS2_PLACEMENT_3D('',#570,#472,#473);
#389=AXIS2_PLACEMENT_3D('',#572,#474,#475);
#390=AXIS2_PLACEMENT_3D('',#574,#477,#478);
#391=AXIS2_PLACEMENT_3D('',#576,#479,#480);
#392=AXIS2_PLACEMENT_3D('',#578,#482,#483);
#393=AXIS2_PLACEMENT_3D('',#582,#485,#486);
#394=AXIS2_PLACEMENT_3D('',#584,#488,#489);
#395=AXIS2_PLACEMENT_3D('',#586,#491,#492);
#396=AXIS2_PLACEMENT_3D('',#588,#494,#495);
#397=DIRECTION('axis',(0.,0.,1.));
#398=DIRECTION('refdir',(1.,0.,0.));
#399=DIRECTION('center_axis',(0.,-1.,8.72897871605703E-17));
#400=DIRECTION('ref_axis',(0.,8.72897871605703E-17,1.));
#401=DIRECTION('',(0.,-8.72897871605703E-17,-1.));
#402=DIRECTION('',(-1.,0.,0.));
#403=DIRECTION('',(0.,8.72897871605703E-17,1.));
#404=DIRECTION('',(-1.,0.,0.));
#405=DIRECTION('center_axis',(0.,-0.832050294337844,0.554700196225229));
#406=DIRECTION('ref_axis',(0.,0.554700196225229,0.832050294337844));
#407=DIRECTION('',(0.,-0.554700196225229,-0.832050294337844));
#408=DIRECTION('',(1.,-7.88387730986549E-76,-1.18258159647982E-75));
#409=DIRECTION('',(0.,0.554700196225229,0.832050294337844));
#410=DIRECTION('center_axis',(0.,0.,1.));
#411=DIRECTION('ref_axis',(1.,0.,0.));
#412=DIRECTION('',(-1.,0.,0.));
#413=DIRECTION('',(0.,1.,5.15143483426073E-14));
#414=DIRECTION('',(-1.40266691985631E-47,-1.,0.));
#415=DIRECTION('center_axis',(1.,-1.40266691985631E-47,-4.55191440096316E-15));
#416=DIRECTION('ref_axis',(1.40266691985631E-47,1.,1.5806322069592E-61));
#417=DIRECTION('',(4.55191440096316E-15,-4.08764144640782E-105,1.));
#418=DIRECTION('center_axis',(-1.,1.40266691985631E-47,4.55191440096316E-15));
#419=DIRECTION('ref_axis',(0.,0.707106781186547,0.707106781186547));
#420=DIRECTION('',(-1.40266691985631E-47,-1.,-1.5806322069592E-61));
#421=DIRECTION('center_axis',(-1.,1.40266691985631E-47,4.55191440096316E-15));
#422=DIRECTION('ref_axis',(0.,-0.707106781186547,0.707106781186547));
#423=DIRECTION('',(-4.55191440096316E-15,0.,-1.));
#424=DIRECTION('center_axis',(-1.,1.40266691985631E-47,4.55191440096316E-15));
#425=DIRECTION('ref_axis',(0.,1.,0.));
#426=DIRECTION('center_axis',(-1.,1.40266691985631E-47,4.55191440096316E-15));
#427=DIRECTION('ref_axis',(0.,1.,0.));
#428=DIRECTION('center_axis',(-1.,1.40266691985631E-47,4.55191440096316E-15));
#429=DIRECTION('ref_axis',(0.,1.,0.));
#430=DIRECTION('center_axis',(-1.,1.40266691985631E-47,4.55191440096316E-15));
#431=DIRECTION('ref_axis',(0.,1.,0.));
#432=DIRECTION('center_axis',(-1.,1.40266691985631E-47,4.55191440096316E-15));
#433=DIRECTION('ref_axis',(0.,1.,4.08764144640782E-105));
#434=DIRECTION('center_axis',(-1.,1.40266691985631E-47,4.55191440096316E-15));
#435=DIRECTION('ref_axis',(0.,-1.,-4.08764144640783E-105));
#436=DIRECTION('center_axis',(-1.,1.40266691985631E-47,4.55191440096316E-15));
#437=DIRECTION('ref_axis',(0.,-1.,-4.08764144640783E-105));
#438=DIRECTION('center_axis',(0.,-1.,-4.08764144640782E-105));
#439=DIRECTION('ref_axis',(0.,-4.08764144640782E-105,1.));
#440=DIRECTION('',(-4.55191440096316E-15,4.08764144640782E-105,-1.));
#441=DIRECTION('',(-1.,-1.45222196806849E-119,3.5527136788005E-15));
#442=DIRECTION('center_axis',(-1.,0.,0.));
#443=DIRECTION('ref_axis',(0.,1.,0.));
#444=DIRECTION('',(-1.,0.,0.));
#445=DIRECTION('center_axis',(1.,-1.40266691985631E-47,-4.55191440096316E-15));
#446=DIRECTION('ref_axis',(0.,1.,0.));
#447=DIRECTION('center_axis',(-1.,0.,0.));
#448=DIRECTION('ref_axis',(0.,1.,0.));
#449=DIRECTION('',(-1.,0.,0.));
#450=DIRECTION('center_axis',(1.,-1.40266691985631E-47,-4.55191440096316E-15));
#451=DIRECTION('ref_axis',(0.,1.,0.));
#452=DIRECTION('center_axis',(-1.,0.,0.));
#453=DIRECTION('ref_axis',(0.,1.,0.));
#454=DIRECTION('',(-1.,0.,0.));
#455=DIRECTION('center_axis',(1.,-1.40266691985631E-47,-4.55191440096316E-15));
#456=DIRECTION('ref_axis',(0.,1.,0.));
#457=DIRECTION('center_axis',(-1.,0.,0.));
#458=DIRECTION('ref_axis',(0.,1.,0.));
#459=DIRECTION('',(-1.,0.,0.));
#460=DIRECTION('center_axis',(1.,-1.40266691985631E-47,-4.55191440096316E-15));
#461=DIRECTION('ref_axis',(0.,1.,0.));
#462=DIRECTION('center_axis',(-1.,0.,0.));
#463=DIRECTION('ref_axis',(0.,1.,4.08764144640782E-105));
#464=DIRECTION('',(-1.,0.,0.));
#465=DIRECTION('center_axis',(1.,-1.40266691985631E-47,-4.55191440096316E-15));
#466=DIRECTION('ref_axis',(0.,1.,4.08764144640782E-105));
#467=DIRECTION('center_axis',(1.,0.,0.));
#468=DIRECTION('ref_axis',(0.,-1.,-4.08764144640783E-105));
#469=DIRECTION('center_axis',(1.,-1.40266691985631E-47,-4.55191440096316E-15));
#470=DIRECTION('ref_axis',(0.,-1.,-4.08764144640783E-105));
#471=DIRECTION('',(1.,0.,0.));
#472=DIRECTION('center_axis',(1.,0.,0.));
#473=DIRECTION('ref_axis',(0.,-1.,-4.08764144640783E-105));
#474=DIRECTION('center_axis',(1.,-1.40266691985631E-47,-4.55191440096316E-15));
#475=DIRECTION('ref_axis',(0.,-1.,-4.08764144640783E-105));
#476=DIRECTION('',(1.,0.,0.));
#477=DIRECTION('center_axis',(-1.,-1.45222196806849E-119,3.5527136788005E-15));
#478=DIRECTION('ref_axis',(0.,0.707106781186547,0.707106781186547));
#479=DIRECTION('center_axis',(1.,-1.40266691985631E-47,-4.55191440096316E-15));
#480=DIRECTION('ref_axis',(0.,0.707106781186547,0.707106781186547));
#481=DIRECTION('',(1.,1.45222196806849E-119,-3.5527136788005E-15));
#482=DIRECTION('center_axis',(1.,-1.40266691985631E-47,-4.55191440096316E-15));
#483=DIRECTION('ref_axis',(1.40266691985631E-47,1.,1.5806322069592E-61));
#484=DIRECTION('',(-4.55191440096316E-15,2.21911418218406E-61,-1.));
#485=DIRECTION('center_axis',(1.,-1.40266691985631E-47,-4.55191440096316E-15));
#486=DIRECTION('ref_axis',(0.,-0.707106781186547,0.707106781186547));
#487=DIRECTION('',(-1.40266691985631E-47,-1.,-1.5806322069592E-61));
#488=DIRECTION('center_axis',(-7.88387730986549E-76,-1.,-2.21911418218406E-61));
#489=DIRECTION('ref_axis',(-4.55191440096316E-15,2.21911418218406E-61,-1.));
#490=DIRECTION('',(1.,0.,-3.5527136788005E-15));
#491=DIRECTION('center_axis',(1.,0.,-3.5527136788005E-15));
#492=DIRECTION('ref_axis',(0.,-0.707106781186547,0.707106781186547));
#493=DIRECTION('',(-1.,0.,3.5527136788005E-15));
#494=DIRECTION('center_axis',(3.5527136788005E-15,-2.07895960225665E-61,
1.));
#495=DIRECTION('ref_axis',(-1.40266691985631E-47,-1.,-1.5806322069592E-61));
#496=CARTESIAN_POINT('',(0.,0.,0.));
#497=CARTESIAN_POINT('Origin',(453.999999999998,-20.,115.));
#498=CARTESIAN_POINT('',(453.999999999998,-20.,180.));
#499=CARTESIAN_POINT('',(453.999999999998,-20.,115.));
#500=CARTESIAN_POINT('',(453.999999999998,-20.,180.));
#501=CARTESIAN_POINT('',(433.999999999998,-20.,180.));
#502=CARTESIAN_POINT('',(453.999999999998,-20.,180.));
#503=CARTESIAN_POINT('',(433.999999999998,-20.,115.));
#504=CARTESIAN_POINT('',(433.999999999998,-20.,180.));
#505=CARTESIAN_POINT('',(453.999999999998,-20.,115.));
#506=CARTESIAN_POINT('Origin',(453.999999999998,-20.,180.));
#507=CARTESIAN_POINT('',(453.999999999998,20.,240.));
#508=CARTESIAN_POINT('',(453.999999999998,20.,240.));
#509=CARTESIAN_POINT('',(433.999999999998,20.,240.));
#510=CARTESIAN_POINT('',(443.999999999998,20.,240.));
#511=CARTESIAN_POINT('',(433.999999999998,20.,240.));
#512=CARTESIAN_POINT('Origin',(453.999999999998,100.,115.000000000002));
#513=CARTESIAN_POINT('',(453.999999999998,70.,115.000000000002));
#514=CARTESIAN_POINT('',(433.999999999997,70.,115.000000000002));
#515=CARTESIAN_POINT('',(453.999999999998,70.,115.000000000002));
#516=CARTESIAN_POINT('',(453.999999999998,-20.,115.));
#517=CARTESIAN_POINT('',(433.999999999997,72.4931139182596,115.000000000002));
#518=CARTESIAN_POINT('Origin',(453.999999999998,44.9862278365192,242.499999999998));
#519=CARTESIAN_POINT('',(453.999999999999,70.,419.999999999998));
#520=CARTESIAN_POINT('',(453.999999999997,70.,126.25));
#521=CARTESIAN_POINT('',(453.999999999999,60.,429.999999999998));
#522=CARTESIAN_POINT('Origin',(453.999999999998,60.,419.999999999998));
#523=CARTESIAN_POINT('',(453.999999999999,30.,429.999999999998));
#524=CARTESIAN_POINT('',(453.999999999999,90.,429.999999999998));
#525=CARTESIAN_POINT('',(453.999999999999,20.,419.999999999998));
#526=CARTESIAN_POINT('Origin',(453.999999999998,30.,419.999999999998));
#527=CARTESIAN_POINT('',(453.999999999998,20.,251.249999999999));
#528=CARTESIAN_POINT('',(453.999999999998,33.4204328417033,387.116728828225));
#529=CARTESIAN_POINT('Origin',(453.999999999998,36.5204328417033,387.116728828225));
#530=CARTESIAN_POINT('',(453.999999999998,48.4204328417033,341.116728828225));
#531=CARTESIAN_POINT('Origin',(453.999999999998,51.5204328417033,341.116728828225));
#532=CARTESIAN_POINT('',(453.999999999998,48.4204328417032,387.116728828225));
#533=CARTESIAN_POINT('Origin',(453.999999999998,51.5204328417032,387.116728828225));
#534=CARTESIAN_POINT('',(453.999999999998,33.4204328417034,341.116728828225));
#535=CARTESIAN_POINT('Origin',(453.999999999998,36.5204328417034,341.116728828225));
#536=CARTESIAN_POINT('',(453.999999999998,29.0204328417033,364.116728828225));
#537=CARTESIAN_POINT('Origin',(453.999999999998,36.5204328417033,364.116728828225));
#538=CARTESIAN_POINT('',(453.999999999998,42.6,309.500000000001));
#539=CARTESIAN_POINT('Origin',(453.999999999998,40.,309.500000000001));
#540=CARTESIAN_POINT('',(453.999999999998,42.6,411.500000000001));
#541=CARTESIAN_POINT('Origin',(453.999999999998,40.,411.500000000001));
#542=CARTESIAN_POINT('Origin',(453.999999999998,70.,10.0000000000021));
#543=CARTESIAN_POINT('',(433.999999999999,70.,419.999999999998));
#544=CARTESIAN_POINT('',(433.999999999997,70.,126.25));
#545=CARTESIAN_POINT('',(443.999999999999,70.,419.999999999998));
#546=CARTESIAN_POINT('Origin',(453.999999999998,36.5204328417033,387.116728828225));
#547=CARTESIAN_POINT('',(433.999999999998,33.4204328417033,387.116728828225));
#548=CARTESIAN_POINT('',(453.999999999998,33.4204328417033,387.116728828225));
#549=CARTESIAN_POINT('Origin',(433.999999999998,36.5204328417033,387.116728828225));
#550=CARTESIAN_POINT('Origin',(453.999999999998,51.5204328417033,341.116728828225));
#551=CARTESIAN_POINT('',(433.999999999998,48.4204328417033,341.116728828225));
#552=CARTESIAN_POINT('',(453.999999999998,48.4204328417033,341.116728828225));
#553=CARTESIAN_POINT('Origin',(433.999999999998,51.5204328417033,341.116728828225));
#554=CARTESIAN_POINT('Origin',(453.999999999998,51.5204328417032,387.116728828225));
#555=CARTESIAN_POINT('',(433.999999999998,48.4204328417032,387.116728828225));
#556=CARTESIAN_POINT('',(453.999999999998,48.4204328417032,387.116728828225));
#557=CARTESIAN_POINT('Origin',(433.999999999998,51.5204328417032,387.116728828225));
#558=CARTESIAN_POINT('Origin',(453.999999999998,36.5204328417034,341.116728828225));
#559=CARTESIAN_POINT('',(433.999999999998,33.4204328417034,341.116728828225));
#560=CARTESIAN_POINT('',(453.999999999998,33.4204328417034,341.116728828225));
#561=CARTESIAN_POINT('Origin',(433.999999999998,36.5204328417034,341.116728828225));
#562=CARTESIAN_POINT('Origin',(453.999999999998,36.5204328417033,364.116728828225));
#563=CARTESIAN_POINT('',(433.999999999998,29.0204328417033,364.116728828225));
#564=CARTESIAN_POINT('',(453.999999999998,29.0204328417033,364.116728828225));
#565=CARTESIAN_POINT('Origin',(433.999999999998,36.5204328417033,364.116728828225));
#566=CARTESIAN_POINT('Origin',(13.9999999999991,40.,309.500000000001));
#567=CARTESIAN_POINT('',(433.999999999998,42.6,309.500000000001));
#568=CARTESIAN_POINT('Origin',(433.999999999998,40.,309.500000000001));
#569=CARTESIAN_POINT('',(13.9999999999991,42.6,309.500000000001));
#570=CARTESIAN_POINT('Origin',(13.9999999999991,40.,411.500000000001));
#571=CARTESIAN_POINT('',(433.999999999998,42.6,411.500000000001));
#572=CARTESIAN_POINT('Origin',(433.999999999998,40.,411.500000000001));
#573=CARTESIAN_POINT('',(13.9999999999991,42.6,411.500000000001));
#574=CARTESIAN_POINT('Origin',(443.999999999999,60.,419.999999999998));
#575=CARTESIAN_POINT('',(433.999999999999,60.,429.999999999998));
#576=CARTESIAN_POINT('Origin',(433.999999999998,60.,419.999999999998));
#577=CARTESIAN_POINT('',(443.999999999999,60.,429.999999999998));
#578=CARTESIAN_POINT('Origin',(433.999999999998,44.9862278365192,242.499999999998));
#579=CARTESIAN_POINT('',(433.999999999999,20.,419.999999999998));
#580=CARTESIAN_POINT('',(433.999999999999,20.,429.999999999998));
#581=CARTESIAN_POINT('',(433.999999999999,30.,429.999999999998));
#582=CARTESIAN_POINT('Origin',(433.999999999998,30.,419.999999999998));
#583=CARTESIAN_POINT('',(433.999999999999,90.,429.999999999998));
#584=CARTESIAN_POINT('Origin',(433.999999999999,20.,429.999999999998));
#585=CARTESIAN_POINT('',(433.999999999999,20.,419.999999999998));
#586=CARTESIAN_POINT('Origin',(433.999999999999,30.,419.999999999998));
#587=CARTESIAN_POINT('',(433.999999999999,30.,429.999999999998));
#588=CARTESIAN_POINT('Origin',(433.999999999999,100.,429.999999999998));
#589=UNCERTAINTY_MEASURE_WITH_UNIT(LENGTH_MEASURE(0.01),#593,
'DISTANCE_ACCURACY_VALUE',
'Maximum model space distance between geometric entities at asserted c
onnectivities');
#590=UNCERTAINTY_MEASURE_WITH_UNIT(LENGTH_MEASURE(0.01),#593,
'DISTANCE_ACCURACY_VALUE',
'Maximum model space distance between geometric entities at asserted c
onnectivities');
#591=(
GEOMETRIC_REPRESENTATION_CONTEXT(3)
GLOBAL_UNCERTAINTY_ASSIGNED_CONTEXT((#589))
GLOBAL_UNIT_ASSIGNED_CONTEXT((#593,#595,#596))
REPRESENTATION_CONTEXT('','3D')
);
#592=(
GEOMETRIC_REPRESENTATION_CONTEXT(3)
GLOBAL_UNCERTAINTY_ASSIGNED_CONTEXT((#590))
GLOBAL_UNIT_ASSIGNED_CONTEXT((#593,#595,#596))
REPRESENTATION_CONTEXT('','3D')
);
#593=(
LENGTH_UNIT()
NAMED_UNIT(*)
SI_UNIT(.MILLI.,.METRE.)
);
#594=(
LENGTH_UNIT()
NAMED_UNIT(*)
SI_UNIT($,.METRE.)
);
#595=(
NAMED_UNIT(*)
PLANE_ANGLE_UNIT()
SI_UNIT($,.RADIAN.)
);
#596=(
NAMED_UNIT(*)
SI_UNIT($,.STERADIAN.)
SOLID_ANGLE_UNIT()
);
#597=SHAPE_DEFINITION_REPRESENTATION(#598,#599);
#598=PRODUCT_DEFINITION_SHAPE('',$,#601);
#599=SHAPE_REPRESENTATION('',(#361),#591);
#600=PRODUCT_DEFINITION_CONTEXT('part definition',#605,'design');
#601=PRODUCT_DEFINITION('FusionComponent','FusionComponent',#602,#600);
#602=PRODUCT_DEFINITION_FORMATION('',$,#607);
#603=PRODUCT_RELATED_PRODUCT_CATEGORY('FusionComponent',
'FusionComponent',(#607));
#604=APPLICATION_PROTOCOL_DEFINITION('international standard',
'automotive_design',2009,#605);
#605=APPLICATION_CONTEXT(
'Core Data for Automotive Mechanical Design Process');
#606=PRODUCT_CONTEXT('part definition',#605,'mechanical');
#607=PRODUCT('FusionComponent','FusionComponent',$,(#606));
#608=PRESENTATION_STYLE_ASSIGNMENT((#610));
#609=PRESENTATION_STYLE_ASSIGNMENT((#611));
#610=SURFACE_STYLE_USAGE(.BOTH.,#612);
#611=SURFACE_STYLE_USAGE(.BOTH.,#613);
#612=SURFACE_SIDE_STYLE('',(#614));
#613=SURFACE_SIDE_STYLE('',(#615));
#614=SURFACE_STYLE_FILL_AREA(#616);
#615=SURFACE_STYLE_FILL_AREA(#617);
#616=FILL_AREA_STYLE('Steel - Satin',(#618));
#617=FILL_AREA_STYLE('Aluminum - Satin',(#619));
#618=FILL_AREA_STYLE_COLOUR('Steel - Satin',#620);
#619=FILL_AREA_STYLE_COLOUR('Aluminum - Satin',#621);
#620=COLOUR_RGB('Steel - Satin',0.627450980392157,0.627450980392157,0.627450980392157);
#621=COLOUR_RGB('Aluminum - Satin',0.96078431372549,0.96078431372549,0.964705882352941);
ENDSEC;
END-ISO-10303-21;
